<svg width="1200" height="600" viewBox="0 0 1200 600" xmlns="http://www.w3.org/2000/svg" fill="none">
  <g stroke="#00ADD8" stroke-width="0.5" stroke-linecap="round">
    <line x1="565.4" y1="279.3" x2="548.6" y2="283.6" opacity="0.08"/> <line x1="565.4" y1="279.3" x2="529.9" y2="196.3" opacity="0.08"/> <line x1="565.4" y1="279.3" x2="480.1" y2="315.6" opacity="0.08"/> <line x1="565.4" y1="279.3" x2="632.3" y2="342.6" opacity="0.08"/> <line x1="565.4" y1="279.3" x2="581.3" y2="228.9" opacity="0.08"/> <line x1="565.4" y1="279.3" x2="608.0" y2="330.4" opacity="0.08"/> <line x1="565.4" y1="279.3" x2="527.8" y2="325.8" opacity="0.08"/> <line x1="565.4" y1="279.3" x2="590.6" y2="150.7" opacity="0.08"/> <line x1="604.2" y1="365.8" x2="655.8" y2="439.6" opacity="0.08"/> <line x1="604.2" y1="365.8" x2="632.3" y2="342.6" opacity="0.08"/> <line x1="604.2" y1="365.8" x2="627.5" y2="398.2" opacity="0.08"/> <line x1="604.2" y1="365.8" x2="608.0" y2="330.4" opacity="0.08"/> <line x1="604.2" y1="365.8" x2="527.8" y2="325.8" opacity="0.08"/> <line x1="548.6" y1="283.6" x2="437.3" y2="276.4" opacity="0.08"/> <line x1="548.6" y1="283.6" x2="529.9" y2="196.3" opacity="0.08"/> <line x1="548.6" y1="283.6" x2="480.1" y2="315.6" opacity="0.08"/> <line x1="548.6" y1="283.6" x2="581.3" y2="228.9" opacity="0.08"/> <line x1="548.6" y1="283.6" x2="608.0" y2="330.4" opacity="0.08"/> <line x1="548.6" y1="283.6" x2="527.8" y2="325.8" opacity="0.08"/> <line x1="548.6" y1="283.6" x2="418.0" y2="324.1" opacity="0.08"/> <line x1="548.6" y1="283.6" x2="590.6" y2="150.7" opacity="0.08"/> <line x1="655.8" y1="439.6" x2="688.1" y2="499.0" opacity="0.08"/> <line x1="655.8" y1="439.6" x2="627.5" y2="398.2" opacity="0.08"/> <line x1="655.8" y1="439.6" x2="717.3" y2="395.9" opacity="0.08"/> <line x1="655.8" y1="439.6" x2="608.9" y2="500.1" opacity="0.08"/> <line x1="247.0" y1="228.5" x2="253.8" y2="167.9" opacity="0.08"/> <line x1="247.0" y1="228.5" x2="249.0" y2="138.2" opacity="0.08"/> <line x1="247.0" y1="228.5" x2="258.5" y2="236.2" opacity="0.08"/> <line x1="247.0" y1="228.5" x2="158.1" y2="170.1" opacity="0.08"/> <line x1="437.3" y1="276.4" x2="529.9" y2="196.3" opacity="0.08"/> <line x1="437.3" y1="276.4" x2="480.1" y2="315.6" opacity="0.08"/> <line x1="437.3" y1="276.4" x2="527.8" y2="325.8" opacity="0.08"/> <line x1="437.3" y1="276.4" x2="418.0" y2="324.1" opacity="0.08"/> <line x1="514.7" y1="538.3" x2="540.4" y2="467.9" opacity="0.08"/> <line x1="514.7" y1="538.3" x2="540.0" y2="560.0" opacity="0.08"/> <line x1="514.7" y1="538.3" x2="531.6" y2="560.0" opacity="0.08"/> <line x1="514.7" y1="538.3" x2="608.9" y2="500.1" opacity="0.08"/> <line x1="529.9" y1="196.3" x2="581.3" y2="228.9" opacity="0.08"/> <line x1="529.9" y1="196.3" x2="590.6" y2="150.7" opacity="0.08"/> <line x1="688.1" y1="499.0" x2="627.5" y2="398.2" opacity="0.08"/> <line x1="688.1" y1="499.0" x2="717.3" y2="395.9" opacity="0.08"/> <line x1="688.1" y1="499.0" x2="608.9" y2="500.1" opacity="0.08"/> <line x1="688.1" y1="499.0" x2="785.3" y2="580.0" opacity="0.08"/> <line x1="690.4" y1="329.8" x2="775.9" y2="347.5" opacity="0.08"/> <line x1="690.4" y1="329.8" x2="632.3" y2="342.6" opacity="0.08"/> <line x1="690.4" y1="329.8" x2="627.5" y2="398.2" opacity="0.08"/> <line x1="690.4" y1="329.8" x2="717.3" y2="395.9" opacity="0.08"/> <line x1="690.4" y1="329.8" x2="608.0" y2="330.4" opacity="0.08"/> <line x1="690.4" y1="329.8" x2="748.8" y2="226.9" opacity="0.08"/> <line x1="253.8" y1="167.9" x2="249.0" y2="138.2" opacity="0.08"/> <line x1="253.8" y1="167.9" x2="258.5" y2="236.2" opacity="0.08"/> <line x1="253.8" y1="167.9" x2="158.1" y2="170.1" opacity="0.08"/> <line x1="480.1" y1="315.6" x2="527.8" y2="325.8" opacity="0.08"/> <line x1="480.1" y1="315.6" x2="418.0" y2="324.1" opacity="0.08"/> <line x1="775.9" y1="347.5" x2="717.3" y2="395.9" opacity="0.08"/> <line x1="775.9" y1="347.5" x2="907.0" y2="373.9" opacity="0.08"/> <line x1="775.9" y1="347.5" x2="748.8" y2="226.9" opacity="0.08"/> <line x1="249.0" y1="138.2" x2="258.5" y2="236.2" opacity="0.08"/> <line x1="249.0" y1="138.2" x2="158.1" y2="170.1" opacity="0.08"/> <line x1="632.3" y1="342.6" x2="627.5" y2="398.2" opacity="0.08"/> <line x1="632.3" y1="342.6" x2="717.3" y2="395.9" opacity="0.08"/> <line x1="632.3" y1="342.6" x2="608.0" y2="330.4" opacity="0.08"/> <line x1="627.5" y1="398.2" x2="540.4" y2="467.9" opacity="0.08"/> <line x1="627.5" y1="398.2" x2="717.3" y2="395.9" opacity="0.08"/> <line x1="627.5" y1="398.2" x2="608.0" y2="330.4" opacity="0.08"/> <line x1="895.9" y1="110.0" x2="896.7" y2="96.8" opacity="0.08"/> <line x1="895.9" y1="110.0" x2="809.1" y2="25.9" opacity="0.08"/> <line x1="895.9" y1="110.0" x2="869.0" y2="92.5" opacity="0.08"/> <line x1="540.4" y1="467.9" x2="540.0" y2="560.0" opacity="0.08"/> <line x1="540.4" y1="467.9" x2="531.6" y2="560.0" opacity="0.08"/> <line x1="540.4" y1="467.9" x2="608.9" y2="500.1" opacity="0.08"/> <line x1="540.0" y1="560.0" x2="531.6" y2="560.0" opacity="0.08"/> <line x1="540.0" y1="560.0" x2="608.9" y2="500.1" opacity="0.08"/> <line x1="581.3" y1="228.9" x2="608.0" y2="330.4" opacity="0.08"/> <line x1="581.3" y1="228.9" x2="590.6" y2="150.7" opacity="0.08"/> <line x1="531.6" y1="560.0" x2="608.9" y2="500.1" opacity="0.08"/> <line x1="258.5" y1="236.2" x2="158.1" y2="170.1" opacity="0.08"/> <line x1="608.0" y1="330.4" x2="527.8" y2="325.8" opacity="0.08"/> <line x1="527.8" y1="325.8" x2="418.0" y2="324.1" opacity="0.08"/> <line x1="101.2" y1="301.2" x2="25.6" y2="263.5" opacity="0.08"/> <line x1="101.2" y1="301.2" x2="65.1" y2="359.7" opacity="0.08"/> <line x1="158.1" y1="170.1" x2="61.4" y2="82.6" opacity="0.08"/> <line x1="158.1" y1="170.1" x2="37.7" y2="154.9" opacity="0.08"/> <line x1="896.7" y1="96.8" x2="809.1" y2="25.9" opacity="0.08"/> <line x1="896.7" y1="96.8" x2="869.0" y2="92.5" opacity="0.08"/> <line x1="809.1" y1="25.9" x2="869.0" y2="92.5" opacity="0.08"/> <line x1="25.6" y1="263.5" x2="37.7" y2="154.9" opacity="0.08"/> <line x1="25.6" y1="263.5" x2="65.1" y2="359.7" opacity="0.08"/> <line x1="61.4" y1="82.6" x2="37.7" y2="154.9" opacity="0.08"/>
  </g>
  <g fill="#00ADD8">
    <circle cx="565.4" cy="279.3" r="2" opacity="0.15"/> <circle cx="604.2" cy="365.8" r="2" opacity="0.15"/> <circle cx="374.9" cy="73.1" r="2" opacity="0.15"/> <circle cx="548.6" cy="283.6" r="2" opacity="0.15"/> <circle cx="655.8" cy="439.6" r="2" opacity="0.15"/> <circle cx="247.0" cy="228.5" r="4" opacity="0.2"/> <circle cx="437.3" cy="276.4" r="3" opacity="0.15"/> <circle cx="514.7" cy="538.3" r="2" opacity="0.15"/> <circle cx="529.9" cy="196.3" r="2" opacity="0.15"/> <circle cx="688.1" cy="499.0" r="2" opacity="0.15"/> <circle cx="690.4" cy="329.8" r="2" opacity="0.15"/> <circle cx="253.8" cy="167.9" r="4" opacity="0.2"/> <circle cx="480.1" cy="315.6" r="3" opacity="0.15"/> <circle cx="775.9" cy="347.5" r="4" opacity="0.2"/> <circle cx="249.0" cy="138.2" r="3" opacity="0.15"/> <circle cx="632.3" cy="342.6" r="4" opacity="0.2"/> <circle cx="627.5" cy="398.2" r="2" opacity="0.15"/> <circle cx="895.9" cy="110.0" r="3" opacity="0.15"/> <circle cx="540.4" cy="467.9" r="2" opacity="0.15"/> <circle cx="717.3" cy="395.9" r="4" opacity="0.2"/> <circle cx="540.0" cy="560.0" r="4" opacity="0.2"/> <circle cx="907.0" cy="373.9" r="3" opacity="0.15"/> <circle cx="581.3" cy="228.9" r="3" opacity="0.15"/> <circle cx="531.6" cy="560.0" r="4" opacity="0.2"/> <circle cx="258.5" cy="236.2" r="2" opacity="0.15"/> <circle cx="608.0" cy="330.4" r="2" opacity="0.15"/> <circle cx="527.8" cy="325.8" r="3" opacity="0.15"/> <circle cx="748.8" cy="226.9" r="4" opacity="0.2"/> <circle cx="101.2" cy="301.2" r="4" opacity="0.2"/> <circle cx="418.0" cy="324.1" r="2" opacity="0.15"/> <circle cx="590.6" cy="150.7" r="4" opacity="0.2"/> <circle cx="158.1" cy="170.1" r="3" opacity="0.15"/> <circle cx="35.8" cy="578.6" r="4" opacity="0.2"/> <circle cx="896.7" cy="96.8" r="2" opacity="0.15"/> <circle cx="938.8" cy="530.1" r="2" opacity="0.15"/> <circle cx="1126.3" cy="577.8" r="3" opacity="0.15"/> <circle cx="809.1" cy="25.9" r="3" opacity="0.15"/> <circle cx="25.6" cy="263.5" r="4" opacity="0.2"/> <circle cx="1126.4" cy="98.2" r="3" opacity="0.15"/> <circle cx="608.9" cy="500.1" r="3" opacity="0.15"/> <circle cx="197.3" cy="562.4" r="2" opacity="0.15"/> <circle cx="61.4" cy="82.6" r="3" opacity="0.15"/> <circle cx="37.7" cy="154.9" r="2" opacity="0.15"/> <circle cx="869.0" cy="92.5" r="2" opacity="0.15"/> <circle cx="785.3" cy="580.0" r="2" opacity="0.15"/> <circle cx="65.1" cy="359.7" r="2" opacity="0.15"/>
  </g>
</svg>