<svg width="64" height="64" viewBox="0 0 64 64" xmlns="http://www.w3.org/2000/svg" fill="none">
  <g stroke="#00ADD8" stroke-width="1.5" stroke-linecap="round" stroke-linejoin="round">
    
<rect x="8" y="12" width="38" height="28" rx="4"/>
<path d="M8 20h38"/>
<circle cx="14" cy="16" r="1"/>
<circle cx="19" cy="16" r="1"/>
<circle cx="24" cy="16" r="1"/>
<path d="M16 30l5-4-5-4"/>
<path d="M24 30h6"/>
<circle cx="45" cy="42" r="8"/>
<path d="M45 31v4"/>
<path d="M45 49v4"/>
<path d="M34 42h4"/>
<path d="M52 42h4"/>
<path d="M37.5 34.5l2.8 2.8"/>
<path d="M49.7 46.7l2.8 2.8"/>
<path d="M37.5 49.5l2.8-2.8"/>
<path d="M49.7 37.3l2.8-2.8"/>
<circle cx="45" cy="42" r="3"/>

  </g>
</svg>